<?xml version="1.0" encoding="UTF-8"?>
<svg id="Layer_2" data-name="Layer 2" xmlns="http://www.w3.org/2000/svg" viewBox="0 0 906 443">
  <defs>
    <style>
      .cls-1 {
        fill: #fff;
      }
    </style>
  </defs>
  <g id="Layer_1-2" data-name="Layer 1">
    <g>
      <path d="M126.08,0l22.21,4.28c35.64,9.65,72.33,38.66,93.57,68.4,11.72,16.41,22.77,37.71,20.18,58.31,23.17-7.76,46.56,13.18,60.46,29.82,25.38-16.38,49.8-34.61,78.24-45.57,46.59-17.95,95.24-18.21,144.2-11.24-4.79,10.02-11.45,19.1-16.51,28.97-22.55,44.01-34.72,103.17-27.31,152.36,3.45,22.95,13.11,46.67,32.32,60.66,2.76,4.55-5.72,40.08-7.77,47.21-2.32,8.07-10.84,33.57-16.75,38.24-12.54,9.93-45.71,2.83-51.85-12.05-3.54-8.57-2.47-34.58-2.13-44.95.34-10.48,1.22-21.47,2.05-31.95.61-7.78,2.11-15.74,2.99-23.5l-63.97,14.99c.12-28.04-12.93-58.21-36.68-73.81-6.36-4.18-12.35-7.31-20.3-6.18l8.49,4.99c40.82,35.53,36.88,97.76,20.77,144.77-2.52,7.35-10.26,27.74-15.36,32.63-4.79,4.59-11.94,4.79-17.9,6.6h-7c-9.89-2.27-28.73-7.13-32.78-17.71-1.72-4.5-1.35-9.98-2.26-14.74l2.04-54.54c-8.47,1.24-16.96,3.09-25.5,3.99-107.08,11.27-202.05-18.09-231.33-131.57-2.58-9.98-8.25-28.19.57-36.27l13.34-5.13c-21.16-8.83-42.5-30.41-48.7-52.79-1.49-5.38-1.79-10.9-3.28-16.22.27-4.23-.37-8.83,0-13,.6-6.79,2.62-15.25,4.71-21.78C17.62,43.39,59.32,24.18,99.08,24.99c-1.59-3.57-11.91-4.9-12-8.45s8.19-10.18,11.33-11.72L116.08,0h10Z"/>
      <g>
        <path d="M446.96,343c.27,20.25-.69,41.11-5.67,60.83-3.22,12.77-6.83,17.35-18.63,23.36-14.26,7.27-44.26,11.79-45.65-10.59,9.1-19.5,16.25-40.07,18.41-61.66l51.54-11.94Z"/>
        <path class="cls-1" d="M723.61,210.24c31.47-5.35,34.22,43.99-.26,39.78-18.6-2.27-21.46-36.09.26-39.78Z"/>
        <path d="M905.81,288c-1.2,8.99-7.7,19.17-15.06,24.44-2.25,1.61-6.18,2.52-7.89,4.11s-1.78,4.06-3.51,5.49c-2.97,2.46-27.87,10.08-31.98,9.99-8.92-.19-16.28-8.4-23.23-12.84-57.04-36.45-107.13-51.03-175.74-44.18-10.34,1.03-20.71,3.08-30.93,4.88-1.89,1.26,3.45,18.27,6.08,19,20.88-3.83,42-6.76,63.32-5.89.03.78.1,1.56-.16,2.33-.5,1.48-10.44,13.55-12.32,15.68-19.57,22.2-46.74,43.17-77.49,43.98-1.51,14.83-1.69,32.74-6.71,46.79-6.06,16.94-32.62,27.19-48.96,20.42-4.56-1.89-8.6-6.48-8.37-11.68.17-3.97,8.73-22.23,10.57-28.52,2.68-9.17,4.58-18.58,5.97-28.04l1-.81c9.64,3.06,19.92,4.08,30.01,3.84l9.5-1.98c-76-1.65-72.16-96.67-60.66-150.2,13.54-63.05,75.23-179.14,155.66-137.33,17.93,9.32,30.47,27.37,36.72,46.26,3.25,9.81,6.18,22.08,5.75,32.25l-53.02-26.97c-1.5.03-13.5,11.45-14.5,13.46-.46.92-1.7.86.04,2.01,4.3,2.85,14.32,5.79,19.66,8.33,61.51,29.27,116.48,71.5,162.86,121.11,2.8.86,3.83-3.17,5.9-4.94,20.87-17.81,53.81-6.6,57.48,21,.26,1.92.26,6.08,0,8ZM723.61,210.24c-21.71,3.69-18.86,37.51-.26,39.78,34.48,4.21,31.73-45.13.26-39.78Z"/>
      </g>
      <g>
        <path class="cls-1" d="M126.08,0h779.73v280c-3.67-27.6-36.61-38.81-57.48-21-2.07,1.77-3.1,5.8-5.9,4.94-46.38-49.61-101.35-91.85-162.86-121.11-5.34-2.54-15.36-5.49-19.66-8.33-1.74-1.15-.5-1.09-.04-2.01,1-2.01,13.01-13.43,14.5-13.46l53.02,26.97c.43-10.17-2.5-22.45-5.75-32.25-6.26-18.89-18.79-36.94-36.72-46.26-80.43-41.8-142.11,74.28-155.66,137.33-11.5,53.53-15.34,148.55,60.66,150.2l-9.5,1.98c-10.1.24-20.37-.78-30.01-3.84l-1,.81c-1.39,9.46-3.29,18.88-5.97,28.04-1.84,6.3-10.4,24.55-10.57,28.52-.22,5.19,3.81,9.78,8.37,11.68,16.34,6.78,42.9-3.48,48.96-20.42,5.02-14.05,5.2-31.96,6.71-46.79,30.75-.82,57.92-21.78,77.49-43.98,1.87-2.13,11.81-14.2,12.32-15.68.26-.77.2-1.55.16-2.33-21.32-.87-42.44,2.06-63.32,5.89-2.63-.73-7.97-17.74-6.08-19,10.22-1.81,20.59-3.85,30.93-4.88,68.61-6.84,118.7,7.73,175.74,44.18,6.95,4.44,14.3,12.65,23.23,12.84,4.11.09,29.01-7.53,31.98-9.99,1.73-1.43,1.88-3.98,3.51-5.49,1.71-1.59,5.64-2.5,7.89-4.11,7.36-5.26,13.85-15.44,15.06-24.44v155H335c5.96-1.81,13.11-2.01,17.9-6.6,5.1-4.89,12.84-25.28,15.36-32.63,16.11-47,20.05-109.24-20.77-144.77l-8.49-4.99c7.95-1.13,13.94,2,20.3,6.18,23.75,15.6,36.8,45.77,36.68,73.81l63.97-14.99c-.87,7.76-2.37,15.72-2.99,23.5-.83,10.48-1.7,21.47-2.05,31.95-.34,10.37-1.4,36.38,2.13,44.95,6.14,14.89,39.31,21.98,51.85,12.05,5.91-4.68,14.43-30.18,16.75-38.24,2.05-7.13,10.53-42.66,7.77-47.21-19.22-13.99-28.87-37.71-32.32-60.66-7.4-49.2,4.76-108.35,27.31-152.36,5.06-9.87,11.72-18.96,16.51-28.97-48.96-6.97-97.61-6.7-144.2,11.24-28.43,10.96-52.85,29.19-78.24,45.57-13.9-16.64-37.29-37.58-60.46-29.82,2.59-20.6-8.47-41.9-20.18-58.31-21.24-29.74-57.93-58.75-93.57-68.4L126.08,0ZM446.96,343l-51.54,11.94c-2.16,21.59-9.3,42.15-18.41,61.66,1.39,22.38,31.39,17.86,45.65,10.59,11.8-6.01,15.41-10.59,18.63-23.36,4.98-19.72,5.93-40.57,5.67-60.83Z"/>
        <path class="cls-1" d="M.12,118c1.49,5.32,1.79,10.84,3.28,16.22,6.19,22.39,27.54,43.96,48.7,52.79l-13.34,5.13c-8.82,8.08-3.14,26.3-.57,36.27,29.29,113.48,124.25,142.84,231.33,131.57,8.53-.9,17.02-2.74,25.5-3.99l-2.04,54.54c.91,4.76.54,10.24,2.26,14.74,4.05,10.58,22.89,15.44,32.78,17.71H.12V118Z"/>
        <path class="cls-1" d="M116.08,0l-17.67,4.82c-3.14,1.54-11.42,8.17-11.33,11.72s10.42,4.88,12,8.45c-39.76-.81-81.47,18.4-94.25,58.23-2.1,6.53-4.11,15-4.71,21.78V0h115.96Z"/>
      </g>
    </g>
  </g>
</svg>